<?xml version="1.0" encoding="utf-8"?>
<!-- Generator: Adobe Illustrator 21.0.2, SVG Export Plug-In . SVG Version: 6.00 Build 0)  -->
<svg version="1.1" id="Layer_1" xmlns="http://www.w3.org/2000/svg" xmlns:xlink="http://www.w3.org/1999/xlink" x="0px" y="0px"
	 viewBox="0 0 207 118.4" style="enable-background:new 0 0 207 118.4;" xml:space="preserve">
<style type="text/css">
	.st0{fill:#58595B;}
	.st1{fill:#FFFFFF;}
	.st2{fill:#EBEBEC;}
	.st3{fill:#EE2D2E;}
</style>
<ellipse class="st0" cx="103.1" cy="59.2" rx="101.2" ry="56.9"/>
<ellipse class="st1" cx="102" cy="57.8" rx="100.4" ry="56"/>
<g>
	<path class="st2" d="M39.3,50.5c-0.5-15.3,30-28.9,69.7-31.9v-3c-0.3,0-0.6,0-0.9,0c-48.3,1.3-87.1,19.3-86.5,40.3
		c0.5,19.5,35,34.7,78.8,35.7V77.3C65.8,75.2,39.8,64.4,39.3,50.5z"/>
	<path class="st3" d="M100.6,77.6C63.7,76.2,35.5,65.1,35,50.7c-0.5-16.3,34.5-30.7,78.4-32.2c14-0.5,27.3,0.4,38.8,2.4
		c-13.9-3.6-30.5-5.4-48.4-5c-48.3,1.3-87.1,19.2-86.5,40.1c0.5,20.1,37.4,35.6,83.3,35.5V77.6z"/>
</g>
<g>
	<path class="st2" d="M163.9,65.7c0.5,15.3-30,28.9-69.7,31.9v3c0.3,0,0.6,0,0.9,0c48.3-1.3,87.1-19.3,86.5-40.3
		c-0.5-19.5-35-34.7-78.8-35.7v14.3C137.5,41,163.4,51.8,163.9,65.7z"/>
	<path class="st3" d="M102.6,38.6c36.9,1.3,65.1,12.4,65.6,26.9c0.5,16.3-34.5,30.7-78.4,32.2c-14,0.5-27.3-0.4-38.8-2.4
		c13.9,3.6,30.5,5.4,48.4,5c48.3-1.3,87.1-19.2,86.5-40.1c-0.5-20.1-37.4-35.6-83.3-35.5V38.6z"/>
</g>
<circle class="st3" cx="101.7" cy="58.1" r="17.5"/>
<g>
	<path class="st1" d="M98.2,61.4c-1.2-0.8-2.8-0.9-5.3-0.2c-2.7,0.6-3.6,1.1-4.8,0.2c-0.5-0.4-0.6-1.1-0.5-2c0.3-1.5,1.1-3,2.4-4.7
		c0.8-0.9,1.5-1.6,2.4-1.9c0.7-0.2,0.6,0.4,0.6,0.5c-0.1,0-0.2,0-0.4,0.1c-0.1,0.1-0.4,0.3-0.4,0.6c0,0.5,0.5,0.4,0.7,0.1
		c0.2-0.3,0.6-0.9,0.3-1.4c-0.1-0.2-0.3-0.3-0.6-0.4c-0.9-0.1-1.6,0.4-2.4,0.8c-1.6,1.1-2.9,2.7-3.6,4.4c-0.4,1-0.8,2.5-0.2,3.7
		c0.4,0.8,1.4,1.3,2.4,1.2c0.8-0.1,1.7-0.3,2.3-0.5c0.6-0.1,3.8-1.2,4.9,0.7c0,0,0.4-0.7,1.2-0.7c0.7-0.1,1.7,0.2,2.5,0.8
		C99.5,62.4,98.8,61.8,98.2,61.4z"/>
	<path class="st1" d="M93.2,55c-0.6-0.4-1.8,0.4-2.8,1.6c-0.9,1.1-1.3,2.5-0.9,3.1c0.6,0.7,1.8-0.3,2.2-0.9l0.1-0.1
		c0.3-0.4,0.6-0.8,0.8-1.2c0,0,0.2-0.4,0.2-0.4c0.1,0,0.3-0.1,0.5-0.1c0,0-0.7,1.2-0.6,1.8c0,0.2,0,0.9,0.7,1.1
		c0.9,0.1,1.6-0.5,2.2-1.1c0,0,0.1-0.1,0.2-0.2c0,0.1,0,0.1,0,0.1c-0.3,0.9,0.1,1.1,0.3,1.1c0.6,0.2,1.4-0.8,1.4-0.8
		c0,0.3-0.1,0.5,0.2,0.7c0.3,0.1,0.6-0.1,0.8-0.2c0.8-0.6,1.5-1.5,2-2.3h-0.3c0,0-0.9,1.2-1.4,1.5c0,0-0.1,0.1-0.1,0
		c-0.1-0.1,0-0.2,0-0.3l2.1-3.7h-1c0,0-0.1,0.2-0.1,0.2c0,0,0,0,0-0.1c-0.6-0.9-2,0.5-3.1,2c-0.4,0.6-0.9,1.2-1.4,1.7
		c0,0-0.8,0.7-1.1,0.2c-0.1-0.2-0.1-0.5,0-0.7c0.4-1.1,1.1-2.1,1.8-2.7c0.2-0.2,0.5-0.2,0.6-0.1c0.1,0.1,0.1,0.2,0.1,0.3
		c-0.2,0-0.3,0.1-0.4,0.2c-0.2,0.2-0.3,0.5-0.2,0.7c0.4,0.5,1.1-0.5,1-1.1c0-0.2-0.1-0.4-0.3-0.5c-0.3-0.1-0.6-0.1-0.9,0
		c-0.4,0.1-0.9,0.6-1.2,0.9c-0.4,0.4-1.1,0.9-1.3,0.9C93.2,56.6,93.8,55.5,93.2,55L93.2,55z M98,56.8c0.2-0.3,0.8-1,0.9-1.1
		c0.5-0.4,0.6-0.2,0.7-0.1c-0.4,0.8-0.9,1.6-1.4,2.4L98,58.2c-0.2,0.3-0.4,0.6-0.8,0.8c-0.1,0-0.1,0-0.2,0c-0.1,0-0.1-0.1-0.1-0.2
		C97,58.6,97.2,57.8,98,56.8L98,56.8z M92.6,57.2C92.6,57.2,92.6,57.2,92.6,57.2L92.1,58c-0.3,0.4-0.6,0.8-1,1c-0.1,0-0.3,0.1-0.4,0
		c-0.2-0.2-0.1-0.5,0-0.8l0-0.1c0.2-0.6,0.6-1.1,0.9-1.6h0l0,0C91.9,56.9,92.3,57.1,92.6,57.2L92.6,57.2
		C92.6,57.2,92.6,57.2,92.6,57.2L92.6,57.2z M93,56.4l-0.2,0.4c0,0-0.1,0-0.1,0l-0.1,0c-0.3-0.1-0.5-0.3-0.5-0.5
		c-0.1-0.4,0.3-0.7,0.4-0.9c0.1-0.1,0.4-0.2,0.5-0.1c0.1,0.1,0.1,0.2,0.1,0.4C93.1,56,93.1,56.2,93,56.4z M105.5,57.7
		c-0.1-0.2-0.3-0.3-0.6-0.3c-0.8,0.1-1.6,0.7-2,1.6c-0.2,0.5-0.3,0.9-0.4,1.5c0.2-0.3,0.7-0.7,1.3-1c0,0,0.1-0.6,0.5-1.1
		c0.1-0.2,0.4-0.6,0.8-0.5c0.3,0.1,0.2,0.9-0.2,1.7c-0.3,0.6-0.7,1.1-1.2,1.6c-0.4,0.3-1,0.7-1.5,0.4c-0.3-0.2-0.5-0.6-0.4-1.1
		c0.1-1.4,0.8-2.7,1.8-4.1c1-1.3,2.1-2.6,3.5-3.4c0.3-0.1,0.6-0.2,0.8-0.1c0,0-1.4,0.7-2,2.1c-0.2,0.4-0.4,0.8-0.2,1.2
		c0.1,0.2,0.3,0.2,0.5,0.2c0.8-0.2,1.3-0.9,1.7-1.6c0.2-0.5,0.5-1,0.5-1.6c0-0.1,0-0.2,0-0.2c0.4-0.2,1.1,0.1,1.1,0.1
		c0.6,0.2,1.9,1.2,2.3,1.4c0.2-0.2,0.6-0.6,0.8-0.8l-0.3-0.2c-0.5-0.3-0.9-0.5-1.4-0.8c-1.1-0.6-2-0.4-2.4-0.2
		c-0.2,0.1-0.3,0.1-0.3,0.1c-0.3-0.4-0.9-0.3-1.3-0.2c-1.4,0.4-2.8,1.4-4.2,3.2c-1.1,1.4-1.7,2.6-2.1,3.7c-0.3,0.8-0.4,1.9,0.3,2.6
		c0.6,0.6,1.3,0.5,1.8,0.2c1.1-0.6,2.1-1.8,2.6-3.2C105.6,58.7,105.8,58.2,105.5,57.7L105.5,57.7z M108.2,53.4
		c-0.1,1.7-1.5,2.7-1.8,2.8c-0.2,0-0.5-0.1-0.2-0.8c0.4-1,1.2-1.8,2-2.2C108.2,53.3,108.2,53.3,108.2,53.4L108.2,53.4z M116.1,53.6
		c-0.7,0.4-1.5,0.7-2.4,0.6c-0.2,0.3-0.5,0.6-0.7,0.9c1.3,0.3,2.6-0.4,3.4-1.1c0.8-0.7,1.2-1.6,1.2-1.6S117,53.1,116.1,53.6z
		 M102.5,55h-0.9l-0.5,0.9h0.9L102.5,55z"/>
	<path class="st1" d="M113.7,61.5c-0.1,0.1-0.2,0-0.2-0.1c0.1-0.4,0.7-1.2,0.7-1.2l1.5-2.6h-1c-0.1,0.1-0.1,0.3-0.1,0.3
		c-0.1-0.1-0.2-0.2-0.2-0.3c-0.2-0.1-0.6-0.1-0.9,0.1c-1.1,0.6-1.9,1.9-2.5,2.9c0,0-0.6,1.1-1,1.2c-0.3,0-0.3-0.4-0.2-0.4
		c0.1-0.6,0.4-1.3,0.6-1.8c0.5-0.4,1.1-0.8,1.7-1.4c1.2-1.1,2.2-2.4,2.3-2.7c0,0-0.1,0-0.3,0c-0.9,1.3-2.8,3.1-3.3,3.4
		c0.2-0.6,1.9-3.4,3.2-4.8l0.2-0.2c0.3-0.3,0.7-0.7,0.9-0.7c0,0,0.1,0,0.1,0.1c0,0.3-0.1,0.4-0.2,0.6l-0.1,0.3c0,0,0.2,0,0.4-0.1
		c0.2-0.3,0.4-0.6,0.3-1.1c0-0.1-0.1-0.2-0.2-0.3c-0.4-0.1-0.9,0.2-1.2,0.5h0c-1.8,1.4-3.4,3.5-4.7,6.4c-0.1,0.1-0.5,0.2-0.5,0.1
		c0.1-0.3,0.3-0.6,0.4-1.1c0-0.1,0-0.2,0-0.4c0-0.2-0.1-0.5-0.3-0.6c-0.3-0.1-0.6-0.1-0.8,0c-1,0.4-1.7,1.4-2.2,2.2
		c-0.3,0.5-0.6,1.1-0.6,1.7c-0.1,0.5,0.1,0.8,0.3,1c0.3,0.1,0.7,0,0.8-0.1c1-0.5,1.7-1.6,2.2-2.5c0,0,0.3,0,0.5-0.1l0,0
		c0,0-0.1,0.4-0.1,0.4c-0.4,1-0.5,1.7-0.2,2.1c0.5,0.6,1.2,0,1.9-0.8c-0.1,0.9,0.4,1.1,0.7,1c0.4-0.1,0.9-0.6,1.1-0.8
		c-0.1,0.3-0.1,0.8,0.3,0.8c0.3,0.1,0.5-0.1,0.7-0.2c0.8-0.4,1.8-1.9,2.1-2.4h-0.3C114.8,60.4,114.3,61.1,113.7,61.5L113.7,61.5z
		 M106.3,61.4c-0.1-0.1-0.1-0.2-0.1-0.3c0-0.6,0.6-1.6,1-2.1l0,0c0.2,0.4,0.6,0.6,0.8,0.8C107.8,60.4,106.8,61.9,106.3,61.4
		L106.3,61.4z M108.3,59.5c0,0-0.5-0.1-0.6-0.6c-0.1-0.4,0.2-0.7,0.5-0.9c0.1-0.1,0.3-0.1,0.4-0.1c0.1,0.1,0.1,0.2,0.1,0.4
		c0,0.1,0,0.2,0,0.3v0C108.6,58.9,108.4,59.2,108.3,59.5L108.3,59.5z M112.4,61.2L112.4,61.2c-0.2,0.2-0.4,0.4-0.5,0.3
		c-0.1,0-0.1-0.1-0.1-0.1c0-0.4,0.1-0.7,0.3-1l0-0.1c0.4-0.7,1-1.6,1.7-2.2c0.1-0.1,0.3-0.2,0.4-0.1c0,0,0.1,0.1,0.1,0.1
		c0,0,0,0.1,0,0.1c-0.2,0.3-0.4,0.7-0.6,1.1C113.3,59.9,112.9,60.6,112.4,61.2z"/>
</g>
</svg>
